<svg width="578" height="407" viewBox="0 0 578 407" fill="none" xmlns="http://www.w3.org/2000/svg">
<g clip-path="url(#clip0)">
<path d="M128.08 40.7696H91.2195C87.6757 40.7728 84.2781 42.181 81.7723 44.6849C79.2665 47.1889 77.8573 50.584 77.8541 54.1252V94.0583C77.3829 94.0302 76.9116 93.988 76.4472 93.9318C67.7147 93.0137 59.4125 89.6762 52.4767 84.2955C45.5408 78.9147 40.2472 71.7048 37.1926 63.4786C34.1379 55.2524 33.4438 46.3371 35.1884 37.7378C36.9331 29.1384 41.0471 21.1971 47.0667 14.8092C53.0863 8.42132 60.772 3.84084 69.2573 1.58421C77.7426 -0.672418 86.6901 -0.515446 95.0909 2.03744C103.492 4.59032 111.012 9.43759 116.803 16.0327C122.595 22.6278 126.427 30.7086 127.869 39.3638C127.946 39.8277 128.016 40.2987 128.08 40.7696Z" fill="#F2F2F2"/>
<path d="M563.228 39.3638H91.2195C87.303 39.368 83.5481 40.9246 80.7787 43.692C78.0093 46.4594 76.4515 50.2115 76.4472 54.1252V302.96C76.4515 306.874 78.0093 310.626 80.7787 313.394C83.5481 316.161 87.303 317.718 91.2195 317.722H563.228C567.144 317.718 570.899 316.161 573.669 313.394C576.438 310.626 577.996 306.874 578 302.96V54.1252C577.996 50.2115 576.438 46.4594 573.669 43.692C570.899 40.9246 567.144 39.368 563.228 39.3638ZM576.593 302.96C576.59 306.502 575.181 309.897 572.675 312.401C570.169 314.905 566.771 316.313 563.228 316.316H91.2195C87.6758 316.313 84.2781 314.905 81.7723 312.401C79.2665 309.897 77.8573 306.502 77.8541 302.96V54.1252C77.8573 50.5841 79.2665 47.1889 81.7723 44.6849C84.2781 42.181 87.6758 40.7728 91.2195 40.7696H563.228C566.771 40.7728 570.169 42.181 572.675 44.6849C575.181 47.1889 576.59 50.5841 576.593 54.1252V302.96Z" fill="#3F3D56"/>
<path d="M540.014 79.6903H114.433C114.246 79.6903 114.068 79.6162 113.936 79.4844C113.804 79.3526 113.73 79.1738 113.73 78.9874C113.73 78.8009 113.804 78.6222 113.936 78.4903C114.068 78.3585 114.246 78.2844 114.433 78.2844H540.014C540.201 78.2844 540.38 78.3585 540.512 78.4903C540.644 78.6222 540.718 78.8009 540.718 78.9874C540.718 79.1738 540.644 79.3526 540.512 79.4844C540.38 79.6162 540.201 79.6903 540.014 79.6903Z" fill="#3F3D56"/>
<path d="M234.721 287.496C234.535 287.496 234.356 287.422 234.224 287.29C234.092 287.158 234.018 286.98 234.018 286.793V55.531C234.018 55.3446 234.092 55.1658 234.224 55.034C234.356 54.9022 234.535 54.8281 234.721 54.8281C234.908 54.8281 235.087 54.9022 235.219 55.034C235.351 55.1658 235.425 55.3446 235.425 55.531V286.793C235.425 286.98 235.351 287.158 235.219 287.29C235.087 287.422 234.908 287.496 234.721 287.496Z" fill="#3F3D56"/>
<path d="M340.941 287.496C340.754 287.496 340.575 287.422 340.443 287.29C340.311 287.158 340.237 286.98 340.237 286.793V55.531C340.237 55.3446 340.311 55.1658 340.443 55.034C340.575 54.9022 340.754 54.8281 340.941 54.8281C341.127 54.8281 341.306 54.9022 341.438 55.034C341.57 55.1658 341.644 55.3446 341.644 55.531V286.793C341.644 286.98 341.57 287.158 341.438 287.29C341.306 287.422 341.127 287.496 340.941 287.496Z" fill="#3F3D56"/>
<path d="M447.16 287.496C446.974 287.496 446.795 287.422 446.663 287.29C446.531 287.158 446.457 286.98 446.457 286.793V55.531C446.457 55.3446 446.531 55.1658 446.663 55.034C446.795 54.9022 446.974 54.8281 447.16 54.8281C447.347 54.8281 447.526 54.9022 447.658 55.034C447.789 55.1658 447.864 55.3446 447.864 55.531V286.793C447.864 286.98 447.789 287.158 447.658 287.29C447.526 287.422 447.347 287.496 447.16 287.496Z" fill="#3F3D56"/>
<path d="M166.428 152.245H140.725C139.885 152.244 139.081 151.91 138.487 151.317C137.894 150.724 137.56 149.92 137.559 149.081V118.772C137.56 117.933 137.894 117.129 138.487 116.536C139.081 115.943 139.885 115.609 140.725 115.608H166.428C167.267 115.609 168.072 115.943 168.666 116.536C169.259 117.129 169.593 117.933 169.594 118.772V149.081C169.593 149.92 169.259 150.724 168.666 151.317C168.072 151.91 167.267 152.244 166.428 152.245Z" fill="#F992A5"/>
<path d="M203.007 238.704H177.303C176.464 238.703 175.66 238.37 175.066 237.777C174.473 237.184 174.139 236.38 174.138 235.541V205.231C174.139 204.393 174.473 203.589 175.066 202.996C175.66 202.403 176.464 202.069 177.303 202.068H203.007C203.846 202.069 204.651 202.403 205.244 202.996C205.838 203.589 206.172 204.393 206.173 205.231V235.541C206.172 236.38 205.838 237.184 205.244 237.777C204.651 238.37 203.846 238.703 203.007 238.704Z" fill="#F992A5"/>
<path d="M286.013 170.521H260.309C259.47 170.52 258.666 170.186 258.072 169.593C257.479 169 257.145 168.196 257.144 167.357V137.048C257.145 136.209 257.479 135.405 258.072 134.812C258.666 134.219 259.47 133.885 260.309 133.884H286.013C286.852 133.885 287.657 134.219 288.25 134.812C288.844 135.405 289.178 136.209 289.179 137.048V167.357C289.178 168.196 288.844 169 288.25 169.593C287.657 170.186 286.852 170.52 286.013 170.521Z" fill="#F992A5"/>
<path d="M393.639 137.483H367.936C367.097 137.482 366.292 137.149 365.698 136.556C365.105 135.963 364.771 135.159 364.77 134.32V104.01C364.771 103.172 365.105 102.368 365.698 101.775C366.292 101.182 367.097 100.848 367.936 100.847H393.639C394.479 100.848 395.283 101.182 395.877 101.775C396.47 102.368 396.804 103.172 396.805 104.01V134.32C396.804 135.159 396.47 135.963 395.877 136.556C395.283 137.149 394.479 137.482 393.639 137.483Z" fill="#F992A5"/>
<path d="M492.825 137.483H467.121C466.282 137.482 465.477 137.149 464.884 136.556C464.29 135.963 463.956 135.159 463.955 134.32V104.01C463.956 103.172 464.29 102.368 464.884 101.775C465.477 101.182 466.282 100.848 467.121 100.847H492.825C493.664 100.848 494.468 101.182 495.062 101.775C495.655 102.368 495.989 103.172 495.99 104.01V134.32C495.989 135.159 495.655 135.963 495.062 136.556C494.468 137.149 493.664 137.482 492.825 137.483Z" fill="#F992A5"/>
<path d="M538.548 145.918H512.844C512.005 145.917 511.201 145.584 510.607 144.991C510.014 144.398 509.68 143.594 509.679 142.755V112.445C509.68 111.607 510.014 110.803 510.607 110.21C511.201 109.617 512.005 109.283 512.844 109.282H538.548C539.387 109.283 540.192 109.617 540.785 110.21C541.379 110.803 541.713 111.607 541.714 112.445V142.755C541.713 143.594 541.379 144.398 540.785 144.991C540.192 145.584 539.387 145.917 538.548 145.918Z" fill="#E6E6E6"/>
<path d="M518.148 200.043H492.445C491.605 200.042 490.801 199.709 490.207 199.116C489.614 198.523 489.28 197.719 489.279 196.88V166.57C489.28 165.732 489.614 164.928 490.207 164.335C490.801 163.742 491.605 163.408 492.445 163.407H518.148C518.988 163.408 519.792 163.742 520.386 164.335C520.979 164.928 521.313 165.732 521.314 166.57V196.88C521.313 197.719 520.979 198.523 520.386 199.116C519.792 199.709 518.988 200.042 518.148 200.043Z" fill="#E6E6E6"/>
<path d="M430.922 188.797H405.218C404.379 188.796 403.574 188.462 402.981 187.869C402.387 187.276 402.054 186.472 402.053 185.633V155.324C402.054 154.485 402.387 153.681 402.981 153.088C403.574 152.495 404.379 152.161 405.218 152.161H430.922C431.761 152.161 432.566 152.495 433.159 153.088C433.752 153.681 434.086 154.485 434.087 155.324V185.634C434.086 186.472 433.752 187.276 433.159 187.869C432.566 188.462 431.761 188.796 430.922 188.797Z" fill="#FF6584"/>
<path d="M380.978 200.043H355.274C354.435 200.042 353.63 199.709 353.037 199.116C352.443 198.523 352.109 197.719 352.108 196.88V166.57C352.109 165.732 352.443 164.928 353.037 164.335C353.63 163.742 354.435 163.408 355.274 163.407H380.978C381.817 163.408 382.621 163.742 383.215 164.335C383.808 164.928 384.142 165.732 384.143 166.57V196.88C384.142 197.719 383.808 198.523 383.215 199.116C382.621 199.709 381.817 200.042 380.978 200.043Z" fill="#E6E6E6"/>
<path d="M273.351 247.842H247.648C246.808 247.841 246.004 247.508 245.41 246.915C244.817 246.322 244.483 245.518 244.482 244.679V214.369C244.483 213.531 244.817 212.727 245.41 212.134C246.004 211.541 246.808 211.207 247.648 211.206H273.351C274.19 211.207 274.995 211.541 275.588 212.134C276.182 212.727 276.516 213.531 276.517 214.369V244.679C276.516 245.518 276.182 246.322 275.588 246.915C274.995 247.508 274.19 247.841 273.351 247.842Z" fill="#E6E6E6"/>
<path d="M143.215 207.776H117.511C116.672 207.775 115.867 207.441 115.274 206.848C114.68 206.255 114.346 205.451 114.346 204.612V174.303C114.346 173.464 114.68 172.66 115.274 172.067C115.867 171.474 116.672 171.14 117.511 171.139H143.215C144.054 171.14 144.859 171.474 145.452 172.067C146.045 172.66 146.379 173.464 146.38 174.303V204.612C146.379 205.451 146.045 206.255 145.452 206.848C144.859 207.441 144.054 207.775 143.215 207.776Z" fill="#FF6584"/>
<path d="M215.669 152.245H189.965C189.126 152.244 188.321 151.91 187.728 151.317C187.135 150.724 186.801 149.92 186.8 149.081V118.772C186.801 117.933 187.135 117.129 187.728 116.536C188.321 115.943 189.126 115.609 189.965 115.608H215.669C216.508 115.609 217.313 115.943 217.906 116.536C218.5 117.129 218.834 117.933 218.835 118.772V149.081C218.834 149.92 218.5 150.724 217.906 151.317C217.313 151.91 216.508 152.244 215.669 152.245Z" fill="#E6E6E6"/>
<path d="M194.625 68.1837H154.529C153.783 68.1837 153.067 67.8874 152.539 67.3601C152.012 66.8328 151.715 66.1177 151.715 65.372C151.715 64.6263 152.012 63.9111 152.539 63.3838C153.067 62.8565 153.783 62.5603 154.529 62.5603H194.625C195.371 62.5603 196.087 62.8565 196.615 63.3838C197.142 63.9111 197.439 64.6263 197.439 65.372C197.439 66.1177 197.142 66.8328 196.615 67.3601C196.087 67.8874 195.371 68.1837 194.625 68.1837Z" fill="#CCCCCC"/>
<path d="M307.879 68.1837H267.783C267.037 68.1837 266.321 67.8874 265.793 67.3601C265.266 66.8328 264.969 66.1177 264.969 65.372C264.969 64.6263 265.266 63.9111 265.793 63.3838C266.321 62.8565 267.037 62.5603 267.783 62.5603H307.879C308.625 62.5603 309.341 62.8565 309.869 63.3838C310.396 63.9111 310.693 64.6263 310.693 65.372C310.693 66.1177 310.396 66.8328 309.869 67.3601C309.341 67.8874 308.625 68.1837 307.879 68.1837Z" fill="#CCCCCC"/>
<path d="M414.098 68.1837H374.002C373.256 68.1837 372.54 67.8874 372.013 67.3601C371.485 66.8328 371.189 66.1177 371.189 65.372C371.189 64.6263 371.485 63.9111 372.013 63.3838C372.54 62.8565 373.256 62.5603 374.002 62.5603H414.098C414.845 62.5603 415.56 62.8565 416.088 63.3838C416.616 63.9111 416.912 64.6263 416.912 65.372C416.912 66.1177 416.616 66.8328 416.088 67.3601C415.56 67.8874 414.845 68.1837 414.098 68.1837Z" fill="#CCCCCC"/>
<path d="M513.284 68.1837H473.187C472.441 68.1837 471.725 67.8874 471.198 67.3601C470.67 66.8328 470.374 66.1177 470.374 65.372C470.374 64.6263 470.67 63.9111 471.198 63.3838C471.725 62.8565 472.441 62.5603 473.187 62.5603H513.284C514.03 62.5603 514.745 62.8565 515.273 63.3838C515.801 63.9111 516.097 64.6263 516.097 65.372C516.097 66.1177 515.801 66.8328 515.273 67.3601C514.745 67.8874 514.03 68.1837 513.284 68.1837Z" fill="#CCCCCC"/>
<path d="M104.819 274.064C103.79 273.963 102.795 273.638 101.905 273.112C101.015 272.586 100.252 271.871 99.6684 271.018C99.0849 270.164 98.6957 269.194 98.5283 268.174C98.3608 267.154 98.4191 266.11 98.6991 265.116L80.6679 248.343L90.2014 245.926L107.932 260.297C109.573 260.878 110.944 262.04 111.785 263.563C112.626 265.086 112.879 266.865 112.495 268.562C112.111 270.259 111.118 271.757 109.703 272.771C108.289 273.785 106.551 274.245 104.819 274.064Z" fill="#FFB8B8"/>
<path d="M129.717 398.033H138.341L142.444 364.793H129.716L129.717 398.033Z" fill="#FFB8B8"/>
<path d="M154.974 406.034L127.869 406.035L127.869 395.571L144.501 395.57C147.278 395.57 149.942 396.673 151.906 398.635C153.87 400.597 154.973 403.259 154.974 406.034L154.974 406.034Z" fill="#2F2E41"/>
<path d="M70.5867 391.811L78.9211 394.028L91.443 362.961L79.1433 359.69L70.5867 391.811Z" fill="#FFB8B8"/>
<path d="M92.9335 406.037L66.7415 399.07L69.4351 388.958L85.5075 393.233C88.1914 393.947 90.4816 395.697 91.8742 398.098C93.2669 400.499 93.6479 403.355 92.9335 406.037Z" fill="#2F2E41"/>
<path d="M140.661 391.74H127.501C126.67 391.743 125.868 391.434 125.252 390.876C124.637 390.318 124.253 389.549 124.177 388.722L116.188 305.825C116.129 305.217 115.861 304.648 115.429 304.216C114.997 303.784 114.428 303.515 113.82 303.455C113.212 303.396 112.601 303.55 112.094 303.89C111.587 304.231 111.213 304.737 111.038 305.323L87.8433 382.784C87.598 383.608 87.044 384.305 86.297 384.73C85.5499 385.155 84.6675 385.275 83.8337 385.066L71.5917 382.007C71.1644 381.9 70.7625 381.71 70.409 381.448C70.0555 381.185 69.7575 380.856 69.5321 380.477C69.3068 380.099 69.1584 379.68 69.0957 379.245C69.033 378.809 69.0571 378.366 69.1667 377.939C69.3666 377.159 89.1519 299.895 89.3247 299.101C93.8076 266.086 99.1708 257.239 102.052 252.487C102.291 252.093 102.51 251.731 102.707 251.39C102.954 250.962 104.474 246.719 105.439 243.964C105.564 243.515 105.781 243.098 106.076 242.738C106.371 242.377 106.737 242.082 107.152 241.871C119.258 235.684 133.423 239.966 137.476 241.426C138.148 241.663 138.726 242.111 139.121 242.703C151.28 261.029 145.313 367.465 143.993 388.616C143.938 389.462 143.563 390.256 142.945 390.836C142.326 391.416 141.509 391.739 140.661 391.74Z" fill="#2F2E41"/>
<path d="M106.701 181.766C116.243 181.766 123.978 174.036 123.978 164.501C123.978 154.966 116.243 147.237 106.701 147.237C97.1588 147.237 89.4235 154.966 89.4235 164.501C89.4235 174.036 97.1588 181.766 106.701 181.766Z" fill="#FFB8B8"/>
<path d="M104.87 247.315L104.746 247.195C104.513 246.97 81.4933 224.435 84.4724 203.597C85.7465 194.684 92.9631 188.989 105.342 187.127C109.89 186.452 114.528 187.44 118.405 189.909C122.282 192.379 125.137 196.163 126.445 200.568L138.685 242.381L104.87 247.315Z" fill="#CCCCCC"/>
<path d="M93.0882 263.344L76.6851 247.057C75.5635 245.937 74.7492 244.547 74.3205 243.022C73.8919 241.496 73.8632 239.886 74.2373 238.346L82.1781 206.069C82.416 205.102 82.85 204.193 83.4532 203.401C84.0565 202.608 84.8162 201.947 85.6853 201.459C86.5543 200.972 87.5143 200.668 88.5058 200.566C89.4973 200.464 90.4992 200.566 91.4494 200.867C93.2606 201.45 94.7734 202.715 95.6675 204.394C96.5615 206.072 96.7666 208.033 96.2392 209.86L87.8792 238.256L101.398 252.762L93.0882 263.344Z" fill="#CCCCCC"/>
<path d="M181.069 207.758C180.635 208.696 180.001 209.528 179.21 210.194C178.42 210.861 177.493 211.346 176.495 211.616C175.497 211.886 174.452 211.934 173.433 211.757C172.414 211.58 171.447 211.181 170.599 210.59L148.701 221.931L149.669 212.297L169.082 200.292C170.17 198.934 171.72 198.023 173.436 197.73C175.152 197.438 176.916 197.784 178.394 198.705C179.871 199.625 180.96 201.055 181.453 202.724C181.946 204.392 181.809 206.183 181.069 207.758H181.069Z" fill="#FFB8B8"/>
<path d="M168.207 214.929L146.861 224.147C145.44 224.756 143.886 224.989 142.349 224.824C140.812 224.66 139.343 224.102 138.084 223.206L110.939 203.771C110.129 203.191 109.446 202.451 108.934 201.597C108.421 200.743 108.09 199.792 107.96 198.805C107.83 197.818 107.904 196.814 108.177 195.856C108.451 194.899 108.918 194.007 109.551 193.237C110.765 191.774 112.503 190.84 114.395 190.634C116.287 190.428 118.185 190.967 119.686 192.135L142.962 210.441L161.462 203.288L168.207 214.929Z" fill="#CCCCCC"/>
<path d="M109.565 170.034C111.696 167.365 115.678 167.222 118.606 165.461C122.441 163.155 124.027 158.003 122.791 153.704C121.555 149.406 117.91 146.056 113.732 144.453C109.553 142.851 104.904 142.831 100.496 143.606C93.9326 144.759 87.4708 147.82 83.468 153.144C79.4651 158.468 78.4464 166.265 82.0741 171.85C83.7414 174.418 86.3153 176.537 86.9809 179.524C87.8548 183.446 85.1018 187.229 82.1524 189.96C78.7922 193.071 74.9372 195.677 71.9933 199.184C69.0495 202.692 67.0864 207.483 68.4297 211.86C69.5552 215.526 72.8304 218.228 76.4218 219.581C80.0132 220.933 83.9248 221.129 87.7621 221.204C91.4884 221.277 95.4462 221.186 98.5853 219.178C101.946 217.029 103.74 212.952 103.873 208.967C104.005 204.982 102.673 201.078 100.887 197.513C99.8222 195.388 98.5845 193.329 97.8772 191.06C97.1699 188.791 97.0473 186.217 98.1801 184.127C99.3708 181.931 101.78 180.607 104.233 180.125C104.36 180.1 104.495 180.077 104.636 180.058C105.334 179.967 106.006 179.736 106.612 179.379C107.218 179.021 107.745 178.545 108.162 177.978C108.578 177.411 108.875 176.765 109.035 176.08C109.195 175.396 109.214 174.685 109.091 173.993C108.812 172.436 108.836 170.947 109.565 170.034Z" fill="#2F2E41"/>
<path d="M339.923 398.769H331.298L327.196 365.529L339.924 365.53L339.923 398.769Z" fill="#A0616A"/>
<path d="M325.138 396.307H341.77V406.771H314.666C314.666 405.397 314.937 404.036 315.464 402.766C315.99 401.497 316.761 400.343 317.734 399.372C318.706 398.4 319.86 397.629 321.131 397.103C322.401 396.577 323.763 396.307 325.138 396.307Z" fill="#2F2E41"/>
<path d="M402.497 389.008L394.653 392.588L377.099 364.057L388.677 358.772L402.497 389.008Z" fill="#A0616A"/>
<path d="M388.026 392.905L403.154 386.001L407.505 395.519L382.851 406.772C382.28 405.522 381.96 404.171 381.911 402.798C381.862 401.425 382.084 400.055 382.565 398.768C383.045 397.48 383.775 396.3 384.712 395.294C385.649 394.288 386.775 393.476 388.026 392.905Z" fill="#2F2E41"/>
<path d="M377.383 286.693C378.209 286.071 378.889 285.276 379.374 284.364C379.86 283.452 380.139 282.444 380.193 281.412C380.247 280.38 380.074 279.349 379.685 278.391C379.297 277.433 378.703 276.572 377.946 275.869L388.084 252.883L375.205 255.064L367.552 276.557C366.454 277.907 365.889 279.612 365.964 281.35C366.04 283.089 366.751 284.739 367.962 285.988C369.174 287.237 370.802 287.999 372.538 288.129C374.275 288.259 375.998 287.748 377.383 286.693Z" fill="#A0616A"/>
<path d="M339.373 390.005H331.134C330.335 390.002 329.567 389.698 328.981 389.155C328.396 388.611 328.038 387.867 327.977 387.071L323.484 267.181C323.451 266.721 323.518 266.26 323.682 265.83C323.845 265.399 324.101 265.009 324.431 264.687C324.761 264.366 325.157 264.12 325.592 263.967C326.027 263.815 326.49 263.759 326.949 263.804L374.596 268.86C375.369 268.935 376.086 269.292 376.613 269.861C377.14 270.43 377.439 271.173 377.454 271.948L378.452 324.833C378.458 325.12 378.513 325.404 378.617 325.672L398.162 376.319C398.313 376.711 398.385 377.128 398.373 377.547C398.361 377.967 398.266 378.379 398.093 378.761C397.92 379.143 397.672 379.487 397.365 379.773C397.058 380.058 396.697 380.28 396.303 380.425L387.954 383.499C387.229 383.766 386.431 383.758 385.711 383.478C384.991 383.198 384.398 382.664 384.045 381.978L360.035 335.325C359.904 335.072 359.808 334.802 359.75 334.522L355.649 314.774C355.53 314.202 355.21 313.69 354.748 313.332C354.286 312.973 353.711 312.79 353.127 312.817C352.542 312.843 351.986 313.077 351.558 313.476C351.13 313.875 350.859 314.413 350.792 314.994L342.518 387.201C342.43 387.973 342.06 388.685 341.48 389.202C340.9 389.719 340.15 390.005 339.373 390.005Z" fill="#2F2E41"/>
<path d="M343.475 173.439C353.017 173.439 360.753 165.709 360.753 156.174C360.753 146.639 353.017 138.91 343.475 138.91C333.933 138.91 326.198 146.639 326.198 156.174C326.198 165.709 333.933 173.439 343.475 173.439Z" fill="#A0616A"/>
<path d="M355.324 278.143C343.607 278.014 332.17 274.552 322.352 268.163L322.183 268.047L322.201 267.843L328.81 190.932C329.037 188.323 330.203 185.884 332.091 184.067C333.979 182.25 336.461 181.178 339.079 181.048C347.644 180.655 359.149 181.151 365.307 185.734C374.614 192.661 379.1 203.092 377.615 214.352C374.533 237.702 378.024 269.201 378.432 272.715L378.461 272.968L378.23 273.075C371.055 276.41 363.237 278.14 355.324 278.143Z" fill="#F992A5"/>
<path d="M378.352 272.846C377.865 272.845 377.384 272.743 376.938 272.547C376.492 272.35 376.092 272.064 375.763 271.705L371.984 267.585C371.575 267.137 371.289 266.592 371.153 266.002C371.016 265.412 371.033 264.796 371.204 264.215L379.821 235.069L366.709 207.554C366.097 206.266 365.947 204.807 366.284 203.421C366.582 202.205 367.241 201.108 368.176 200.274C369.11 199.44 370.276 198.908 371.519 198.75C372.761 198.591 374.023 198.812 375.137 199.385C376.251 199.957 377.166 200.854 377.76 201.956L395.553 230.806C396.276 231.976 396.7 233.306 396.788 234.678C396.877 236.051 396.626 237.424 396.06 238.677L381.562 270.776C381.323 271.307 380.956 271.77 380.493 272.123C380.031 272.476 379.487 272.709 378.912 272.801C378.727 272.83 378.54 272.845 378.352 272.846Z" fill="#F992A5"/>
<path d="M256.571 217.17C257.401 217.787 258.356 218.214 259.369 218.422C260.382 218.63 261.428 218.614 262.434 218.374C263.44 218.135 264.381 217.677 265.191 217.035C266.001 216.392 266.66 215.58 267.122 214.656L292.05 217.886L286.321 206.155L263.527 204.886C261.921 204.214 260.124 204.153 258.477 204.716C256.83 205.279 255.446 206.427 254.589 207.941C253.732 209.455 253.46 211.231 253.825 212.932C254.19 214.633 255.168 216.141 256.571 217.17V217.17Z" fill="#A0616A"/>
<path d="M311.518 223.577C311.084 223.577 310.65 223.547 310.22 223.487L271.003 218.052C270.362 217.964 269.753 217.718 269.231 217.336C268.709 216.955 268.29 216.449 268.013 215.865C267.923 215.677 267.848 215.482 267.789 215.282H267.789C267.637 214.763 267.595 214.219 267.664 213.682C267.734 213.146 267.914 212.63 268.193 212.167L271.439 206.791C271.788 206.216 272.279 205.741 272.865 205.41C273.45 205.079 274.111 204.905 274.784 204.903H274.79L308.974 204.942L334.504 182.085C335.692 181.024 337.209 180.403 338.801 180.328C340.198 180.263 341.582 180.623 342.77 181.36C343.958 182.098 344.895 183.177 345.457 184.457C346.018 185.738 346.179 187.158 345.916 188.531C345.654 189.903 344.981 191.165 343.987 192.148L318.511 220.46C317.63 221.441 316.552 222.225 315.347 222.762C314.142 223.299 312.837 223.577 311.518 223.577Z" fill="#F992A5"/>
<path d="M345.439 171.533C347.018 167.882 348.354 163.019 345.326 160.437C343.569 158.94 341.039 158.937 338.738 158.751C332.254 158.226 325.58 155.245 322.411 149.568C319.241 143.891 321.011 135.45 326.99 132.889C331.02 131.163 335.641 132.339 339.859 133.534L352.525 137.123C356.289 138.19 360.24 139.366 362.949 142.185C367.271 146.682 366.948 154.284 363.515 159.49C360.083 164.696 354.915 170.126 348.998 172.102L345.439 171.533Z" fill="#2F2E41"/>
<path d="M520.183 407H0.837584C0.727388 407 0.618215 406.979 0.516315 406.937C0.414415 406.895 0.3218 406.833 0.243766 406.756C0.165733 406.678 0.103818 406.586 0.0615736 406.484C0.0193294 406.382 -0.00242043 406.273 -0.00242043 406.163C-0.00242043 406.053 0.0193294 405.944 0.0615736 405.842C0.103818 405.74 0.165733 405.648 0.243766 405.57C0.3218 405.493 0.414415 405.431 0.516315 405.389C0.618215 405.347 0.727388 405.326 0.837584 405.326H520.183C520.293 405.326 520.403 405.347 520.504 405.389C520.606 405.431 520.699 405.493 520.777 405.57C520.855 405.648 520.917 405.74 520.959 405.842C521.001 405.944 521.023 406.053 521.023 406.163C521.023 406.273 521.001 406.382 520.959 406.484C520.917 406.586 520.855 406.678 520.777 406.756C520.699 406.833 520.606 406.895 520.504 406.937C520.403 406.979 520.293 407 520.183 407Z" fill="#3F3D56"/>
</g>
<defs>
<clipPath id="clip0">
<rect width="578" height="407" fill="white"/>
</clipPath>
</defs>
</svg>
